<svg width="152" height="24" viewBox="0 0 152 24" fill="none" xmlns="http://www.w3.org/2000/svg">
<mask id="mask0_1389_45" style="mask-type:luminance" maskUnits="userSpaceOnUse" x="0" y="0" width="117" height="24">
<path d="M117 0H0V23.9936H117V0Z" fill="white"/>
</mask>
<g mask="url(#mask0_1389_45)">
<path d="M44.6832 23.9528C44.2329 23.9544 43.783 23.9265 43.3363 23.8691V20.5011C43.6519 20.6958 44.0628 20.7946 44.5577 20.7946C44.8715 20.8002 45.1844 20.7579 45.4854 20.6693C45.8049 20.5713 46.0968 20.3996 46.3376 20.168C46.4965 20.0215 46.6347 19.854 46.7485 19.6702C46.851 19.503 46.933 19.324 46.9927 19.1372C47.0964 18.7971 47.146 18.4429 47.1398 18.0874V16.9596C46.8621 17.2578 46.5513 17.5234 46.2134 17.7511C45.9376 17.9349 45.6406 18.0847 45.3288 18.1972C44.831 18.3678 44.307 18.4494 43.7809 18.4385C42.9034 18.4505 42.033 18.2808 41.2242 17.9403C40.9064 17.8023 40.6033 17.6326 40.3195 17.4339C40.0772 17.2639 39.8514 17.0715 39.645 16.8593C39.3926 16.5987 39.1693 16.3114 38.9794 16.0023C38.7849 15.6862 38.6217 15.352 38.4921 15.0043C38.3597 14.6501 38.2596 14.2846 38.1929 13.9124C38.1252 13.5365 38.0911 13.1554 38.0909 12.7735C38.0911 12.3436 38.1317 11.9146 38.2122 11.4923C38.289 11.0879 38.4026 10.6913 38.5517 10.3075C38.8222 9.5965 39.2275 8.9443 39.7453 8.3869C40.0116 8.1086 40.3071 7.85973 40.6267 7.64466C40.9406 7.43355 41.2752 7.25494 41.6253 7.11159C41.9721 6.96963 42.3319 6.86192 42.6996 6.79002C43.0642 6.71855 43.4349 6.68249 43.8064 6.68235C44.3125 6.68048 44.8154 6.76201 45.2949 6.92366C46.0081 7.167 46.6446 7.59385 47.1404 8.1613V7.00799H51.1511V17.5108C51.1511 18.2916 51.1211 19.1243 50.9035 19.9234C50.7975 20.3189 50.6426 20.6996 50.4425 21.0568C50.2173 21.4545 49.9414 21.8212 49.6219 22.1479C49.2808 22.4949 48.8958 22.7959 48.4767 23.0431C48.0826 23.2736 47.6638 23.4589 47.2281 23.5954C46.8085 23.7261 46.3783 23.8197 45.9423 23.875C45.5247 23.9278 45.1041 23.9538 44.6832 23.9528ZM44.7584 10.016C44.4341 10.0116 44.1123 10.0723 43.812 10.1946C43.4987 10.3282 43.2154 10.5231 42.9786 10.7679C42.7182 11.0357 42.5127 11.3518 42.3739 11.6985C42.2627 11.9767 42.2042 12.2731 42.2015 12.5727C42.2037 12.9065 42.2718 13.2366 42.4019 13.544C42.5364 13.865 42.7323 14.1567 42.9786 14.4026C43.2263 14.6502 43.5245 14.8415 43.8528 14.9634C44.1505 15.0741 44.4657 15.1303 44.7833 15.1295C45.1126 15.126 45.4382 15.059 45.7421 14.9321C46.0579 14.8046 46.3455 14.6162 46.5884 14.3775C46.8336 14.1272 47.0256 13.8298 47.1525 13.5033C47.2725 13.2076 47.3362 12.8921 47.3404 12.573C47.3298 12.244 47.2541 11.9204 47.1179 11.6208C46.9801 11.2953 46.7836 10.998 46.5382 10.7436C46.3072 10.5151 46.0337 10.3341 45.733 10.2109C45.4238 10.0834 45.0928 10.0172 44.7584 10.016ZM30.3202 18.5887C29.818 18.5887 29.4005 18.5728 29.0072 18.5389C28.552 18.5028 28.1005 18.4303 27.6568 18.3223C27.2104 18.214 26.779 18.0513 26.3722 17.8378C25.9559 17.6168 25.5789 17.3284 25.2567 16.9844C24.8681 16.581 24.5784 16.093 24.4103 15.5587C24.2614 15.0534 24.1916 14.5281 24.2036 14.0015V7.00799H28.2142V13.2746C28.2103 13.5465 28.2451 13.8177 28.3176 14.0798C28.403 14.3958 28.5756 14.6814 28.8156 14.904C29.0101 15.07 29.2409 15.1881 29.4894 15.2486C29.7283 15.3067 29.9736 15.334 30.2194 15.33C30.6873 15.33 31.183 15.2932 31.6482 14.8537C31.871 14.635 32.0349 14.3634 32.1245 14.0643C32.196 13.8074 32.2298 13.5415 32.2247 13.2749V7.00831H36.2353V14.0018C36.2353 14.4398 36.2226 14.9512 36.0725 15.4775C35.9024 16.0576 35.5875 16.5848 35.1576 17.0098C34.8295 17.3491 34.4508 17.6356 34.0351 17.8592C33.6427 18.0676 33.2263 18.2274 32.7952 18.3351C31.915 18.5598 31.0101 18.5887 30.3202 18.5887ZM15.6059 18.5887C14.6507 18.5887 13.8257 18.4729 13.0838 18.2346C12.6439 18.0938 12.2213 17.904 11.8239 17.6686C11.3858 17.4065 10.9809 17.0926 10.6178 16.7337C9.47034 15.6092 8.88827 14.2177 8.88827 12.5978C8.88679 12.135 8.93852 11.6735 9.04241 11.2225C9.13349 10.8317 9.26786 10.4522 9.44299 10.0912C9.73801 9.492 10.1356 8.949 10.6179 8.487C10.8737 8.2392 11.151 8.0148 11.4467 7.81637C11.7941 7.58333 12.1629 7.38402 12.5481 7.22112C13.5173 6.82088 14.5575 6.62052 15.606 6.63206C18.1289 6.63206 19.725 7.64074 20.6193 8.487C21.1015 8.9491 21.4992 9.492 21.7942 10.0912C21.9693 10.4523 22.1037 10.8317 22.195 11.2225C22.2987 11.6735 22.3503 12.135 22.3489 12.5978C22.3489 14.2179 21.767 15.6091 20.6193 16.7337C20.2708 17.0781 19.8837 17.3813 19.4657 17.6371C19.0779 17.8721 18.665 18.0632 18.2348 18.2068C17.4661 18.4636 16.606 18.5887 15.6059 18.5887ZM15.6312 10.0411C14.9616 10.0575 14.3205 10.3158 13.8265 10.768C13.5775 11.0081 13.3812 11.2972 13.2499 11.6172C13.1197 11.9279 13.0516 12.261 13.0494 12.5979C13.0519 12.9347 13.1267 13.2669 13.2688 13.5723C13.4054 13.8717 13.5942 14.1444 13.8266 14.3776C14.0634 14.6147 14.3445 14.8031 14.6538 14.9322C14.9632 15.0624 15.2956 15.1295 15.6313 15.1295C15.9597 15.1278 16.2845 15.0607 16.5868 14.9322C16.8943 14.8016 17.1741 14.6133 17.4108 14.3776C17.6537 14.1487 17.8478 13.8731 17.9814 13.5672C18.1149 13.2614 18.1852 12.9316 18.1879 12.5979C18.1831 12.2706 18.1151 11.9472 17.9875 11.6457C17.8545 11.3184 17.6585 11.0203 17.4108 10.7684C17.1698 10.5459 16.8907 10.3686 16.5868 10.2452C16.2845 10.1158 15.9599 10.0465 15.6312 10.0411ZM58.7179 18.5727C58.0026 18.5375 57.2964 18.396 56.6228 18.1526C56.2634 18.0194 55.9184 17.8501 55.593 17.6476C55.2459 17.43 54.9244 17.174 54.6347 16.8843C54.4284 16.6771 54.2393 16.4533 54.0695 16.2152C53.8627 15.9251 53.6837 15.6162 53.535 15.2926C53.1605 14.4617 52.9713 13.5594 52.9804 12.6481C52.9732 11.7866 53.1339 10.932 53.4536 10.132C53.5965 9.7799 53.7745 9.4431 53.985 9.1267C54.1809 8.8322 54.4071 8.5591 54.6598 8.3117C55.1809 7.80927 55.798 7.41709 56.4741 7.15854C57.2844 6.84252 58.2173 6.68227 59.2469 6.68227C59.9729 6.67532 60.6959 6.77456 61.3932 6.97681C61.7802 7.09232 62.1538 7.24885 62.5076 7.44372C62.8886 7.65465 63.2416 7.91255 63.5583 8.2114C63.928 8.5629 64.2459 8.9651 64.5024 9.406C64.7308 9.8017 64.9113 10.2232 65.04 10.6616C65.2487 11.3973 65.349 12.1595 65.3377 12.9241V13.3502H56.9906C56.9906 13.9362 57.2076 14.7452 57.6925 15.2302C57.8621 15.3998 58.1777 15.6235 58.7179 15.7261V18.5727ZM59.3469 9.2389C58.6456 9.2389 58.1279 9.4301 57.7177 9.8405C57.4001 10.1715 57.1903 10.591 57.116 11.0437H61.653C61.5433 10.5931 61.3188 10.1786 61.0014 9.8405C60.7577 9.602 60.4566 9.4303 60.1272 9.3422C59.8731 9.272 59.6105 9.2372 59.3469 9.2389ZM4.05065 18.2129H0.0400391V16.7519H4.05065V18.2129ZM4.05065 15.7753H0.0400391V13.9035H4.05065V15.7753ZM4.06789 12.9269H0.0400391V10.7295H5.12263C5.06368 10.7728 5.00707 10.8192 4.95302 10.8685C4.56872 11.2304 4.30046 11.6982 4.18224 12.2127C4.12348 12.447 4.08522 12.686 4.06789 12.9269ZM8.51228 9.7529H0.0400391V7.00799H4.05065V8.8375C4.23676 8.486 4.47795 8.1665 4.76504 7.89123C5.02144 7.64666 5.31294 7.44178 5.62991 7.28337C6.18226 6.98396 6.88216 6.83219 7.71025 6.83219C7.74955 6.83219 7.79602 6.83569 7.88929 6.84301H7.89239H7.89751C8.02048 6.85262 8.20676 6.86743 8.51252 6.88184V9.7518L8.51228 9.7529Z" fill="#E22E3B"/>
<path d="M76.5671 10.8614C75.8625 10.3817 75.1504 10.1418 74.4308 10.1418C74.0577 10.1387 73.6874 10.2075 73.3402 10.3442C73.0093 10.4751 72.7075 10.6699 72.452 10.9177C72.1961 11.1666 71.9933 11.465 71.8561 11.7947C71.7093 12.155 71.6366 12.5412 71.6425 12.9303C71.638 13.3119 71.7107 13.6905 71.8561 14.0434C71.9921 14.371 72.1907 14.6689 72.4408 14.9204C72.6937 15.1713 72.9962 15.3666 73.329 15.4938C73.6803 15.6299 74.0541 15.6986 74.4309 15.6962C75.1954 15.6962 75.9075 15.4339 76.5672 14.9092V18.3722C75.5626 18.807 74.6107 19.0243 73.7113 19.0243C72.8937 19.0283 72.0822 18.8835 71.3164 18.5971C70.576 18.3224 69.8962 17.9062 69.315 17.3715C68.7324 16.8318 68.2624 16.1822 67.932 15.46C67.5791 14.6798 67.4025 13.8314 67.4147 12.9752C67.4041 12.1142 67.5726 11.2603 67.9095 10.4679C68.2244 9.7324 68.6831 9.0672 69.2587 8.5115C69.8454 7.95351 70.5372 7.51779 71.2938 7.22967C72.1007 6.9187 72.9589 6.76232 73.8237 6.76871C74.7749 6.75992 75.7149 6.97565 76.5671 7.39838V10.8614ZM79.4455 0H83.5158V8.5902C84.0705 7.91555 84.6327 7.46205 85.2023 7.22967C85.7719 6.99729 86.4391 6.8811 87.2037 6.8811C88.6577 6.8811 89.7558 7.28214 90.4981 8.0842C91.2403 8.8863 91.6114 9.9694 91.6112 11.3336V18.6645H87.541V12.8403C87.5521 12.3644 87.5068 11.8888 87.4061 11.4236C87.3407 11.1082 87.1843 10.8189 86.9564 10.5915C86.596 10.2765 86.1306 10.108 85.6521 10.1195C84.9625 10.1195 84.4341 10.3256 84.0667 10.738C83.6994 11.1503 83.5158 11.7388 83.5158 12.5033V18.6649H79.4455V0ZM98.1551 12.8628C98.1519 13.2214 98.2207 13.577 98.3575 13.9085C98.4864 14.2218 98.6734 14.5079 98.9084 14.7518C99.1444 14.9941 99.4276 15.1855 99.7405 15.314C100.072 15.4507 100.428 15.5195 100.787 15.5164C101.138 15.5181 101.486 15.4492 101.81 15.314C102.123 15.1854 102.406 14.9941 102.642 14.7518C102.876 14.5091 103.066 14.2276 103.204 13.9197C103.347 13.6016 103.42 13.2565 103.418 12.9078C103.419 12.5555 103.346 12.2068 103.204 11.8846C103.068 11.5723 102.878 11.2867 102.642 11.0413C102.406 10.799 102.123 10.6076 101.81 10.4791C101.486 10.3438 101.138 10.275 100.787 10.2767C100.428 10.2736 100.072 10.3424 99.7405 10.4792C99.4276 10.6077 99.1444 10.799 98.9084 11.0414C98.6771 11.2797 98.4904 11.5577 98.3575 11.8621C98.2208 12.1779 98.1518 12.5188 98.1551 12.8628ZM103.283 7.12851H107.375V18.6645H103.283V17.3827C102.413 18.4771 101.236 19.0243 99.7517 19.0243C98.956 19.0332 98.1672 18.8762 97.4355 18.5634C96.7395 18.262 96.112 17.8221 95.5915 17.2703C95.0596 16.7042 94.6433 16.0396 94.366 15.314C94.0677 14.5316 93.9189 13.7001 93.9275 12.8628C93.9235 12.0598 94.0684 11.2631 94.3547 10.5129C94.6249 9.7947 95.0294 9.1346 95.5466 8.5678C96.059 8.0111 96.6786 7.56371 97.3681 7.2523C98.1034 6.9235 98.9014 6.75852 99.7068 6.76879C101.146 6.76879 102.338 7.27101 103.283 8.2755V7.12851ZM114.684 10.5241V18.6645H110.614V10.5241H109.264V7.12851H110.614V3.66546H114.684V7.12851H117V10.5241H114.684Z" fill="#0F8EFF"/>
</g>
<path d="M128.5 15.6799H129.4C130.08 15.6799 130.687 15.5732 131.22 15.3599C131.753 15.1466 132.2 14.8532 132.56 14.4799C132.933 14.1066 133.213 13.6666 133.4 13.1599C133.6 12.6399 133.7 12.0732 133.7 11.4599C133.7 10.8599 133.6 10.2999 133.4 9.77992C133.2 9.25992 132.913 8.81322 132.54 8.43992C132.18 8.06662 131.733 7.77325 131.2 7.55992C130.667 7.34659 130.067 7.23992 129.4 7.23992H128.5V15.6799ZM124.58 3.91992H130.38C131.407 3.91992 132.367 4.12659 133.26 4.53992C134.167 4.95325 134.953 5.50659 135.62 6.19992C136.3 6.87992 136.833 7.67992 137.22 8.59992C137.607 9.50662 137.8 10.4599 137.8 11.4599C137.8 12.4466 137.607 13.3999 137.22 14.3199C136.847 15.2266 136.32 16.0266 135.64 16.7199C134.973 17.4132 134.187 17.9666 133.28 18.3799C132.387 18.7932 131.42 18.9999 130.38 18.9999H124.58V3.91992ZM144.223 15.9599H145.083C146.069 15.9599 146.776 15.8332 147.203 15.5799C147.629 15.3266 147.843 14.9199 147.843 14.3599C147.843 13.7999 147.629 13.3932 147.203 13.1399C146.776 12.8866 146.069 12.7599 145.083 12.7599H144.223V15.9599ZM144.223 9.83992H144.943C146.169 9.83992 146.783 9.35322 146.783 8.37992C146.783 7.40659 146.169 6.91992 144.943 6.91992H144.223V9.83992ZM140.303 3.91992H146.143C147.529 3.91992 148.583 4.25325 149.303 4.91992C150.023 5.58659 150.383 6.54659 150.383 7.79992C150.383 8.55992 150.243 9.19322 149.963 9.69992C149.696 10.1932 149.283 10.6132 148.723 10.9599C149.283 11.0666 149.756 11.2332 150.143 11.4599C150.543 11.6732 150.863 11.9399 151.103 12.2599C151.356 12.5799 151.536 12.9399 151.643 13.3399C151.749 13.7399 151.803 14.1666 151.803 14.6199C151.803 15.3266 151.676 15.9532 151.423 16.4999C151.183 17.0466 150.836 17.5066 150.383 17.8799C149.943 18.2532 149.403 18.5332 148.763 18.7199C148.123 18.9066 147.403 18.9999 146.603 18.9999H140.303V3.91992Z" fill="black"/>
</svg>
